<svg xmlns="http://www.w3.org/2000/svg" width="92" height="48.631" viewBox="0 0 92 48.631"><defs><style>.a{fill:#15b2a2;}</style></defs><g transform="translate(-200.5 -294.545)"><g transform="translate(200.5 328.379)"><path d="M200.5,449.769v-8.487h3.977q2.421,0,2.422,1.976a2.146,2.146,0,0,1-1.579,2.071A1.81,1.81,0,0,1,207,447.258q0,2.511-2.653,2.511Zm3.787-1.365a.934.934,0,0,0,1.044-1.068q0-1.324-1.561-1.324H203.3V445q1.959-.326,1.959-1.638,0-.712-.878-.712h-2.3V448.4Z" transform="translate(-200.5 -441.282)"/><path d="M239.774,449.757v-8.475h3.858q2.6,0,2.6,2.273,0,1.537-2.024,2.547l2.689,3.668h-1.982l-2.582-3.7v-.718q2.255-.386,2.255-1.751,0-.937-1.056-.938h-2.154v7.093Z" transform="translate(-230.718 -441.282)"/><path d="M277.548,449.769h-1.614l3.6-8.487h1.692l3.68,8.487h-1.691l-.967-2.314H279.43l.54-1.365h1.709l-1.336-3.187Z" transform="translate(-258.541 -441.282)"/><path d="M324.628,449.769v-8.487H326.2l4.481,6.184v-6.184H332.2v8.487h-1.573l-4.481-6.315v6.315Z" transform="translate(-296.007 -441.282)"/><path d="M370.44,449.769v-8.487h3.324q4.214,0,4.214,4.012,0,4.475-4.214,4.475Zm3.324-1.365q2.641,0,2.641-3.11a2.337,2.337,0,0,0-2.641-2.647h-1.751V448.4Z" transform="translate(-331.256 -441.282)"/><path d="M431.047,449.769v-8.487h1.573l4.481,6.184v-6.184h1.514v8.487h-1.573l-4.481-6.315v6.315Z" transform="translate(-377.888 -441.282)"/><path d="M475.254,449.769H473.64l3.6-8.487h1.691l3.68,8.487h-1.691l-.968-2.314h-2.819l.54-1.365h1.709L478.05,442.9Z" transform="translate(-410.66 -441.282)"/><path d="M522.338,449.769v-8.487h1.632l2.879,6.439,2.819-6.439h1.573v8.487h-1.454v-5.911l-2.3,5.911h-1.341l-2.35-5.911v5.911Z" transform="translate(-448.13 -441.282)"/><path d="M579.75,441.282v1.353H575.5v2.137h4.048v1.407h-4.065V448.4h4.35v1.365H573.94v-8.487Z" transform="translate(-487.834 -441.282)"/></g><g transform="translate(209.333 339.734)"><path d="M238.808,490.629h.487l.978,1.773.992-1.773h.51l-1.3,2.208v1.187h-.439v-1.187Z" transform="translate(-238.808 -490.605)"/><path d="M260.192,492.252a1.692,1.692,0,1,1,3.383,0,1.692,1.692,0,1,1-3.383,0Zm1.7,1.36q1.215,0,1.215-1.375,0-1.355-1.215-1.355-1.242,0-1.242,1.355Q260.655,493.612,261.9,493.612Z" transform="translate(-255.261 -490.526)"/><path d="M284.768,492.713v-2.084h.439v2.084a.973.973,0,1,0,1.947,0v-2.084h.439v2.084q0,1.334-1.413,1.334T284.768,492.713Z" transform="translate(-274.171 -490.605)"/><path d="M307.439,494.024v-3.395h1.448q.968,0,.969.814,0,.663-.947.981l1.166,1.6h-.579l-1.08-1.527v-.287q.973-.154.974-.748,0-.47-.541-.47h-.969v3.032Z" transform="translate(-291.614 -490.605)"/><path d="M341.407,490.629v.356h-1.068v3.039H339.9v-3.039h-1.068v-.356Z" transform="translate(-315.768 -490.605)"/><path d="M356.708,494.024h-.456l1.441-3.395h.487l1.448,3.395h-.487l-.439-1.068h-1.123l.121-.356h.855l-.634-1.538Z" transform="translate(-329.172 -490.605)"/><path d="M381.932,493.812a2.463,2.463,0,0,1-.885.157q-1.844,0-1.845-1.769,0-1.674,1.781-1.674a3.053,3.053,0,0,1,.949.143v.38a2.53,2.53,0,0,0-.9-.166q-1.389,0-1.389,1.318a1.229,1.229,0,0,0,1.368,1.413,2.325,2.325,0,0,0,.484-.057V492.4h.439Z" transform="translate(-346.83 -490.526)"/><path d="M401.644,490.629v3.039h1.776v.356H401.2v-3.395Z" transform="translate(-363.76 -490.605)"/><path d="M420.844,490.629v3.395H420.4v-3.395Z" transform="translate(-378.533 -490.605)"/><path d="M433.142,494.024v-3.395h.439l2.078,2.735v-2.735h.415v3.395h-.439l-2.077-2.759v2.759Z" transform="translate(-388.333 -490.605)"/><path d="M458.6,490.629v.356h-1.781v1.14h1.7v.356h-1.7v1.187h1.816v.356H456.38v-3.395Z" transform="translate(-406.213 -490.605)"/><path d="M488.235,494.024v-3.395h.439v1.5h2.006v-1.5h.439v3.395h-.439v-1.543h-2.006v1.543Z" transform="translate(-430.723 -490.605)"/><path d="M513.486,490.629v.356h-1.781v1.14h1.7v.356h-1.7v1.187h1.816v.356h-2.255v-3.395Z" transform="translate(-448.444 -490.605)"/><path d="M530.952,494.024v-3.395H532.4q.969,0,.969.814,0,.663-.947.981l1.166,1.6h-.579l-1.08-1.527v-.287q.973-.154.973-.748,0-.47-.541-.47h-.969v3.032Z" transform="translate(-463.59 -490.605)"/><path d="M553.631,490.629v.356H551.85v1.14h1.7v.356h-1.7v1.187h1.816v.356h-2.255v-3.395Z" transform="translate(-479.332 -490.605)"/></g><path class="a" d="M313.02,301.457c-6.8,3.717-11.292,11.947-21.366,13.227-7.966,1.012-5.384-3.207-3.555-7.693l.4.26.561-1.032a3.69,3.69,0,0,0,2.793-.2c1.408-.629,4.769-7.549,5.364-8.792l-.533-.383L291.7,303.8c-.06.1-.159.095-.248.031s-.166-.17-.091-.273c.224-.315,4.168-6.053,4.855-7.051l-.648-.464c-.685.938-4.761,6.519-5.046,6.914a.171.171,0,0,1-.262.027c-.185-.1-.1-.205-.059-.257.283-.4,4.255-6.052,4.923-7l-.647-.464c-.725.971-4.889,6.551-5.114,6.865a.163.163,0,0,1-.258.039c-.089-.064-.163-.16-.082-.282l4.985-6.959-.534-.381c-.986.965-6.457,6.372-6.6,7.909a3.688,3.688,0,0,0,.709,2.709l-.745.948.368.258c-12.171,15.256,20.079,12.33,31.915,1.193-3.3,4.668-11.133,10.735-20.088,11.447,26.57,7.156,24.411-16.04,41.96-19.586C331.821,295.079,320.894,297.156,313.02,301.457Z" transform="translate(-64.64 0)"/></g></svg>