<svg xmlns="http://www.w3.org/2000/svg" width="194.903" height="103.025" viewBox="0 0 194.903 103.025"><defs><style>.a{fill:#fff;}</style></defs><g transform="translate(-200.5 -294.545)"><g transform="translate(200.5 366.223)"><path class="a" d="M200.5,459.261V441.282h8.424q5.13,0,5.13,4.187,0,3.068-3.345,4.388,3.571.668,3.571,4.086,0,5.319-5.62,5.319Zm8.022-2.891a1.979,1.979,0,0,0,2.213-2.264q0-2.8-3.307-2.8h-1.006v-2.15q4.149-.691,4.149-3.47,0-1.509-1.861-1.509h-4.878v12.2Z" transform="translate(-200.5 -441.282)"/><path class="a" d="M239.774,459.236V441.282h8.173q5.507,0,5.507,4.815,0,3.257-4.288,5.395l5.7,7.77h-4.2l-5.469-7.833v-1.521q4.778-.817,4.778-3.709,0-1.985-2.238-1.987h-4.564v15.026Z" transform="translate(-220.59 -441.282)"/><path class="a" d="M279.354,459.261h-3.42l7.632-17.979h3.584l7.8,17.979h-3.583l-2.049-4.9h-5.973l1.145-2.893H288.1l-2.829-6.751Z" transform="translate(-239.086 -441.282)"/><path class="a" d="M324.628,459.261V441.282h3.332l9.493,13.1v-13.1h3.206v17.979h-3.332l-9.493-13.378v13.378Z" transform="translate(-263.994 -441.282)"/><path class="a" d="M370.44,459.261V441.282h7.041q8.927,0,8.927,8.5,0,9.481-8.927,9.48Zm7.041-2.891q5.6,0,5.6-6.589,0-5.608-5.6-5.608h-3.709v12.2Z" transform="translate(-287.428 -441.282)"/><path class="a" d="M431.047,459.261V441.282h3.331l9.494,13.1v-13.1h3.206v17.979h-3.332l-9.493-13.378v13.378Z" transform="translate(-318.43 -441.282)"/><path class="a" d="M477.06,459.261h-3.42l7.632-17.979h3.583l7.8,17.979h-3.583l-2.05-4.9h-5.971l1.144-2.893h3.621l-2.829-6.751Z" transform="translate(-340.217 -441.282)"/><path class="a" d="M522.338,459.261V441.282h3.456l6.1,13.642,5.972-13.642H541.2v17.979h-3.081V446.738l-4.879,12.523H530.4l-4.979-12.523v12.523Z" transform="translate(-365.127 -441.282)"/><path class="a" d="M586.249,441.282v2.866h-9v4.527h8.576v2.98h-8.613v4.715h9.216v2.891H573.94V441.282Z" transform="translate(-391.523 -441.282)"/></g><g transform="translate(219.213 390.277)"><path class="a" d="M238.808,490.629h1.031l2.072,3.756,2.1-3.756h1.081l-2.746,4.677v2.515h-.931v-2.515Z" transform="translate(-238.808 -490.579)"/><path class="a" d="M260.192,494.182q0-3.656,3.611-3.656,3.556,0,3.556,3.656,0,3.636-3.556,3.636Q260.193,497.818,260.192,494.182Zm3.611,2.882q2.575,0,2.575-2.913,0-2.872-2.575-2.871-2.63,0-2.63,2.871Q261.173,497.064,263.8,497.064Z" transform="translate(-249.746 -490.526)"/><path class="a" d="M284.768,495.045v-4.416h.93v4.416a2.062,2.062,0,1,0,4.124,0v-4.416h.931v4.416q0,2.826-2.992,2.826T284.768,495.045Z" transform="translate(-262.318 -490.579)"/><path class="a" d="M307.439,497.821v-7.192h3.068q2.052,0,2.052,1.724,0,1.4-2.007,2.078l2.47,3.39h-1.228l-2.288-3.235v-.608q2.062-.327,2.062-1.585,0-1-1.147-1H308.37v6.423Z" transform="translate(-273.914 -490.579)"/><path class="a" d="M344.288,490.629v.755h-2.263v6.438h-.931v-6.438h-2.264v-.755Z" transform="translate(-289.972 -490.579)"/><path class="a" d="M357.218,497.821h-.966l3.053-7.192h1.031l3.068,7.192h-1.031l-.931-2.263h-2.379l.256-.755h1.811l-1.343-3.259Z" transform="translate(-298.883 -490.579)"/><path class="a" d="M384.986,497.487a5.217,5.217,0,0,1-1.876.332q-3.908,0-3.908-3.747,0-3.546,3.772-3.545a6.467,6.467,0,0,1,2.012.3v.8a5.362,5.362,0,0,0-1.911-.352q-2.942,0-2.942,2.791,0,2.992,2.9,2.993a4.924,4.924,0,0,0,1.026-.121V494.5h.93Z" transform="translate(-310.623 -490.526)"/><path class="a" d="M402.135,490.629v6.438H405.9v.755H401.2v-7.192Z" transform="translate(-321.878 -490.579)"/><path class="a" d="M421.336,490.629v7.192H420.4v-7.192Z" transform="translate(-331.699 -490.579)"/><path class="a" d="M433.142,497.821v-7.192h.93l4.4,5.794v-5.794h.88v7.192h-.931l-4.4-5.844v5.844Z" transform="translate(-338.214 -490.579)"/><path class="a" d="M461.082,490.629v.755H457.31V493.8h3.6v.754h-3.6v2.515h3.847v.755H456.38v-7.192Z" transform="translate(-350.101 -490.579)"/><path class="a" d="M488.235,497.821v-7.192h.93V493.8h4.25v-3.169h.93v7.192h-.93v-3.269h-4.25v3.269Z" transform="translate(-366.396 -490.579)"/><path class="a" d="M515.969,490.629v.755H512.2V493.8h3.6v.754h-3.6v2.515h3.847v.755h-4.778v-7.192Z" transform="translate(-378.176 -490.579)"/><path class="a" d="M530.952,497.821v-7.192h3.068q2.052,0,2.053,1.724,0,1.4-2.007,2.078l2.469,3.39h-1.228l-2.287-3.235v-.608q2.062-.327,2.062-1.585,0-1-1.146-1h-2.053v6.423Z" transform="translate(-388.246 -490.579)"/><path class="a" d="M556.113,490.629v.755h-3.773V493.8h3.6v.754h-3.6v2.515h3.848v.755h-4.778v-7.192Z" transform="translate(-398.711 -490.579)"/></g><path class="a" d="M344.909,309.188c-14.414,7.874-23.921,25.309-45.265,28.021-16.877,2.143-11.406-6.793-7.532-16.3l.851.55,1.189-2.186a7.817,7.817,0,0,0,5.918-.424c2.982-1.333,10.1-15.992,11.363-18.627l-1.129-.811-10.559,14.742c-.126.213-.338.2-.526.065s-.351-.361-.193-.579c.475-.667,8.83-12.823,10.286-14.938l-1.374-.983c-1.451,1.986-10.087,13.81-10.689,14.647a.363.363,0,0,1-.554.058c-.391-.213-.2-.435-.124-.544.6-.838,9.014-12.821,10.429-14.834l-1.371-.982c-1.537,2.057-10.357,13.878-10.834,14.544a.346.346,0,0,1-.547.082c-.189-.136-.345-.338-.173-.6l10.561-14.743-1.131-.808c-2.09,2.043-13.678,13.5-13.979,16.754a7.814,7.814,0,0,0,1.5,5.739l-1.578,2.009.779.546c-25.785,32.319,42.537,26.121,67.612,2.527-7,9.889-23.585,22.743-42.557,24.25,56.288,15.159,51.715-33.981,88.893-41.492C384.739,295.675,361.589,300.076,344.909,309.188Z" transform="translate(-42.973)"/></g></svg>